<svg xmlns="http://www.w3.org/2000/svg" clip-rule="evenodd" fill-rule="evenodd" height="226.05" image-rendering="optimizeQuality" shape-rendering="geometricPrecision" text-rendering="geometricPrecision" viewBox="0 0 149.03 226.05" width="149.03"><defs><linearGradient gradientUnits="userSpaceOnUse" id="a" x1="210.68" x2="-4.34" y1="109.89" y2="227.23"><stop offset="0" stop-color="#0098da"/><stop offset="1" stop-color="#a8cf45"/></linearGradient></defs><g><path d="M99.88 1.6c-1.36,-1.01 -3.04,-1.6 -4.85,-1.6 -4.51,0 -8.2,3.69 -8.2,8.2l0 68.82 -12.31 0c-41.07,0 -74.51,33.44 -74.51,74.51 0,41.07 33.44,74.52 74.51,74.52 41.07,0 74.52,-33.44 74.52,-74.52l0 -28.71 -16.41 0 0 28.71c0,32.02 -26.09,58.11 -58.11,58.11 -32.01,0 -58.1,-26.09 -58.1,-58.11 0,-32.01 26.09,-58.1 58.1,-58.1l12.31 0 0 29.4 -12.31 0c-15.79,0 -28.71,12.92 -28.71,28.71 0,15.79 12.92,28.72 28.71,28.72 15.79,0 28.71,-12.92 28.71,-28.72l0 -1.14c0,-33.65 0,-67.3 0,-100.95 24.26,-2.91 33.9,20.1 28.94,69.04 16.19,-23.61 21.6,-56.24 -4.65,-82.4 -4.16,-4.15 -8.54,-8.19 -12.53,-12.31 -5.98,-6.16 -13.46,-20.96 -15.11,-22.18z" fill="url(#a)"/></g></svg>